# xmcd CD database file
#
# Track frame offsets:
#	150
#	15425
#	29357
#	47303
#	63696
#	80726
#	97480
#	113236
#	131010
#	150093
#	166689
#	188220
#	204474
#
# Disc length: 2971 seconds
#
# Revision: 0
# Processed by: cddbd v1.5.1PL0 Copyright (c) Steve Scherf et al.
# Submitted via: CDex 1.51
#
DISCID=a40b990d
DTITLE=Travis Sinclair - Rhythm of the Highway
DYEAR=2003
DGENRE=Country
TTITLE0=Kick the Kenny
TTITLE1=Eating up bitumen
TTITLE2=Things I'd rather have been
TTITLE3=My baby loves my rig
TTITLE4=Still riding that line
TTITLE5=50 Tons on your back
TTITLE6=Sons of the road
TTITLE7=Deam machine
TTITLE8=The biggest test
TTITLE9=Roadhouse
TTITLE10=I'll be home soon
TTITLE11=El dorado Saddle
TTITLE12=Road Train
EXTD=YEAR: 2003
EXTT0=
EXTT1=
EXTT2=
EXTT3=
EXTT4=
EXTT5=
EXTT6=
EXTT7=
EXTT8=
EXTT9=
EXTT10=
EXTT11=
EXTT12=
PLAYORDER=
